<svg width="40" height="41" viewBox="0 0 40 41" fill="none" xmlns="http://www.w3.org/2000/svg">
<rect y="0.5" width="40" height="40" rx="20" fill="#003366"/>
<path fill-rule="evenodd" clip-rule="evenodd" d="M17.2159 14.375L25.5682 14.375C25.7159 14.375 25.8575 14.4337 25.9619 14.5381C26.0663 14.6425 26.125 14.7841 26.125 14.9318V23.2841C26.125 23.5916 25.8757 23.8409 25.5682 23.8409C25.2607 23.8409 25.0114 23.5916 25.0114 23.2841V16.2761L14.8255 26.4619C14.6081 26.6794 14.2555 26.6794 14.0381 26.4619C13.8206 26.2445 13.8206 25.8919 14.0381 25.6745L24.2239 15.4886L17.2159 15.4886C16.9084 15.4886 16.6591 15.2393 16.6591 14.9318C16.6591 14.6243 16.9084 14.375 17.2159 14.375Z" fill="#FBFBFB"/>
</svg>
