<svg width="20" height="25" viewBox="0 0 20 25" fill="none" xmlns="http://www.w3.org/2000/svg">
<path d="M16.8299 7.74993C16.5422 7.4938 16.2383 7.25664 15.9199 7.03993L15.9999 6.96993C16.0599 6.89993 16.1799 6.83993 16.2699 6.74993C16.3799 6.62542 16.4739 6.4877 16.5499 6.33993C16.5999 6.23993 16.6399 6.13993 16.6799 6.04993L17.2399 6.34993C17.3559 6.43216 17.4798 6.50251 17.6099 6.55993C17.8099 6.61993 17.9399 6.55993 17.9999 6.55993C18.0599 6.55993 18.1499 6.41993 18.1299 6.27993C18.1287 6.21476 18.1094 6.15121 18.074 6.09644C18.0387 6.04167 17.9888 5.99785 17.9299 5.96993C17.9299 5.90993 17.7899 5.78993 17.7699 5.75993L17.2599 5.17993C17.0672 5.0099 16.8634 4.85289 16.6499 4.70993C16.4799 4.60993 16.2999 4.55993 16.1299 4.47993C15.5599 4.24993 15.4299 4.13993 15.2299 4.21993C15.0299 4.29993 14.9299 4.47993 15.2299 4.78993C15.3829 4.96322 15.5466 5.12687 15.7199 5.27993C15.8399 5.37993 15.9399 5.49993 16.0499 5.60993L15.9399 5.66993C15.8099 5.78993 15.6299 5.85993 15.4999 5.98993C15.3727 6.11829 15.268 6.267 15.1899 6.42993V6.58993C13.8289 5.86054 12.3368 5.40848 10.7999 5.25993V5.09993C10.81 4.9768 10.81 4.85306 10.7999 4.72993C10.8141 4.61035 10.8141 4.48951 10.7999 4.36993C10.7999 4.13993 10.6899 3.88993 10.6099 3.56993C11.1799 3.56993 11.7499 3.46993 12.3299 3.37993C12.4077 3.37231 12.4795 3.33459 12.5299 3.27482C12.5804 3.21505 12.6055 3.13794 12.5999 3.05993C12.5961 3.02046 12.5846 2.98212 12.5659 2.94714C12.5473 2.91215 12.5219 2.88121 12.4912 2.8561C12.4605 2.83099 12.4252 2.81222 12.3872 2.80086C12.3492 2.7895 12.3093 2.78579 12.2699 2.78993C11.5106 2.83505 10.7492 2.83505 9.98988 2.78993C9.50278 2.73266 9.02118 2.63567 8.54988 2.49993C8.39243 2.45324 8.24612 2.37498 8.11988 2.26993C8.01988 2.19993 7.87988 2.14993 7.91988 2.03993C7.99433 1.92133 8.10219 1.82739 8.22988 1.76993C8.31526 1.71925 8.41097 1.68849 8.50988 1.67993C9.15988 1.62993 9.89988 1.52993 10.6099 1.48993C10.8964 1.4753 11.1834 1.4753 11.4699 1.48993C11.743 1.4744 12.0168 1.4744 12.2899 1.48993C12.4247 1.50442 12.5545 1.54884 12.6699 1.61993C12.7585 1.68094 12.8195 1.77432 12.8399 1.87993C12.875 2.02111 12.875 2.16875 12.8399 2.30993C12.8278 2.35327 12.8244 2.39858 12.8299 2.44323C12.8355 2.48789 12.8498 2.53099 12.8722 2.57006C12.8945 2.60913 12.9243 2.64338 12.96 2.67082C12.9957 2.69826 13.0364 2.71835 13.0799 2.72993C13.1661 2.75474 13.2586 2.74449 13.3372 2.70141C13.4159 2.65833 13.4744 2.58591 13.4999 2.49993C13.585 2.19916 13.585 1.8807 13.4999 1.57993C13.4384 1.3482 13.3054 1.14175 13.1199 0.989931C12.9199 0.83387 12.6876 0.724532 12.4399 0.669931C12.1397 0.609019 11.8356 0.568924 11.5299 0.549931C11.1116 0.503527 10.6905 0.486819 10.2699 0.499931C9.64989 0.499931 9.01988 0.549931 8.44988 0.559931C8.11142 0.577664 7.78516 0.692201 7.50988 0.889931C7.21325 1.08548 6.98034 1.36358 6.83988 1.68993C6.76791 1.89591 6.75602 2.11811 6.8056 2.3306C6.85518 2.54308 6.96418 2.73708 7.11988 2.88993C7.4614 3.20919 7.88905 3.42127 8.34988 3.49993C8.86372 3.56643 9.38193 3.59318 9.89988 3.57993C9.82988 3.87993 9.76988 4.11993 9.72988 4.33993C9.72116 4.46311 9.72116 4.58675 9.72988 4.70993V5.07993C9.7266 5.10315 9.7266 5.12671 9.72988 5.14993C8.86738 5.11369 8.0034 5.16058 7.14988 5.28993C5.63836 5.56693 4.23612 6.26613 3.10532 7.30668C1.97452 8.34722 1.16136 9.68661 0.759884 11.1699C-0.15141 14.0683 0.118119 17.2092 1.50988 19.9099C3.22988 23.1299 7.61988 24.8199 11.6699 24.3899C21.6199 23.3799 21.1099 11.6099 16.8299 7.74993ZM16.4599 21.6599C15.4599 22.8699 12.9899 23.3999 9.99988 23.5599C7.00988 23.7199 5.23988 22.1599 3.22988 20.5599C2.94821 20.2353 2.70958 19.8756 2.51988 19.4899C1.29655 17.0442 1.07067 14.219 1.88988 11.6099C2.27181 10.3315 2.9581 9.16487 3.88988 8.20993C4.86372 7.30491 6.06171 6.67657 7.35988 6.38993C8.9878 6.10261 10.6565 6.13999 12.2699 6.49993C13.7089 6.88637 15.0647 7.53377 16.2699 8.40993C17.8463 10.2985 18.7441 12.661 18.8199 15.1199C18.8799 17.7499 17.9999 20.3799 16.4599 21.6599Z" fill="#003366"/>
<path d="M10.1998 22.25C10.1998 22.25 10.1398 20.79 9.78979 20.79C9.67979 20.79 9.59979 20.85 9.49979 20.97C9.42427 21.1559 9.37383 21.3509 9.34979 21.55C9.30508 21.7128 9.28486 21.8813 9.28979 22.05C9.29435 22.2116 9.31444 22.3723 9.34979 22.53C9.44757 22.6341 9.57826 22.7012 9.71979 22.72C10.1998 22.72 10.1898 22.4 10.1998 22.25Z" fill="#343434"/>
<path d="M10.1998 7.50001C10.1998 7.50001 10.1398 8.96001 9.78985 8.96001C9.67985 8.96001 9.59985 8.96001 9.49985 8.78001C9.42315 8.59458 9.37266 8.39937 9.34985 8.20001C9.30493 8.0407 9.2847 7.87545 9.28985 7.71001C9.29501 7.5452 9.31509 7.38119 9.34985 7.22001C9.44762 7.11596 9.57832 7.04885 9.71985 7.03001C10.1998 7.02001 10.1898 7.35001 10.1998 7.50001Z" fill="#343434"/>
<path d="M16.5498 14.0199C16.2098 14.0899 15.9098 14.2399 15.5498 14.2999C15.4782 14.2999 15.4095 14.3284 15.3589 14.379C15.3082 14.4296 15.2798 14.4983 15.2798 14.5699C15.2798 14.6415 15.3082 14.7102 15.3589 14.7608C15.4095 14.8115 15.4782 14.8399 15.5498 14.8399C15.9131 14.9004 16.282 14.9205 16.6498 14.8999C16.8498 14.8999 17.0598 14.8399 17.2798 14.8299L17.5798 14.7699C17.6456 14.7019 17.6872 14.6141 17.698 14.5201C17.7089 14.4261 17.6884 14.3311 17.6398 14.2499C17.6038 14.1808 17.5528 14.1207 17.4905 14.074C17.4282 14.0272 17.3562 13.9951 17.2798 13.9799C17.0357 13.9643 16.7907 13.9778 16.5498 14.0199Z" fill="#343434"/>
<path d="M15.65 19.79C15.5446 19.6406 15.4311 19.497 15.31 19.36C15.1636 19.2021 15.003 19.0582 14.83 18.93C14.6711 18.8027 14.504 18.6858 14.33 18.58C14.2642 18.536 14.1887 18.5085 14.11 18.5C14.0384 18.5 13.9697 18.5284 13.9191 18.5791C13.8684 18.6297 13.84 18.6984 13.84 18.77C13.84 18.9 13.78 18.77 14.3 19.46C14.38 19.57 14.45 19.72 14.56 19.87C14.6657 20.0095 14.7827 20.1399 14.91 20.26C14.954 20.3055 15.0069 20.3414 15.0654 20.3654C15.1239 20.3895 15.1867 20.4013 15.25 20.4C15.55 20.33 15.81 20.01 15.65 19.79Z" fill="#343434"/>
<path d="M14.0798 9.25009C13.9998 9.40009 13.9398 9.55009 13.8798 9.67009C13.8198 9.79009 13.6298 10.0401 13.5798 10.1801C13.5497 10.2427 13.5327 10.3107 13.5298 10.3801C13.5298 10.4517 13.5582 10.5204 13.6089 10.571C13.6595 10.6216 13.7282 10.6501 13.7998 10.6501C13.7998 10.6501 13.8598 10.7401 14.4998 10.1201L14.7798 9.82009C14.8592 9.71774 14.9327 9.6109 14.9998 9.50009C15.0598 9.40009 15.1098 9.30009 15.1598 9.20009C15.175 9.16718 15.1829 9.13135 15.1829 9.09509C15.1829 9.05883 15.175 9.023 15.1598 8.99009C15.0998 8.67009 14.9098 8.56009 14.5198 8.70009C14.4398 8.77009 14.4198 8.70009 14.3498 8.83009C14.2474 8.96171 14.157 9.10227 14.0798 9.25009Z" fill="#343434"/>
<path d="M3.68988 13.8501C4.01988 13.9201 4.31988 14.0701 4.68988 14.1301C4.76149 14.1301 4.83017 14.1585 4.8808 14.2091C4.93144 14.2598 4.95988 14.3285 4.95988 14.4001C4.95988 14.4717 4.93144 14.5403 4.8808 14.591C4.83017 14.6416 4.76149 14.6701 4.68988 14.6701C4.327 14.7345 3.95763 14.7547 3.58988 14.7301C3.37988 14.7301 3.16988 14.6701 2.94988 14.6601L2.64988 14.6001C2.58405 14.5321 2.54249 14.4443 2.53164 14.3502C2.5208 14.2562 2.54127 14.1613 2.58988 14.0801C2.76988 13.8201 2.94988 13.8101 2.94988 13.8101C3.19727 13.7948 3.44559 13.8082 3.68988 13.8501Z" fill="#343434"/>
<path d="M4.29997 19.3401C4.40212 19.1882 4.51579 19.0445 4.63997 18.9101C4.78511 18.7569 4.946 18.6195 5.11997 18.5001C5.27892 18.3727 5.44593 18.2558 5.61997 18.1501C5.68577 18.106 5.76125 18.0786 5.83997 18.0701C5.91158 18.0701 5.98026 18.0985 6.03089 18.1491C6.08153 18.1998 6.10997 18.2685 6.10997 18.3401C6.10997 18.4701 6.16997 18.3401 5.64997 19.0301C5.56997 19.1401 5.49997 19.2901 5.38997 19.4401C5.28431 19.5795 5.16724 19.71 5.03997 19.8301C4.99598 19.8755 4.94307 19.9114 4.88457 19.9355C4.82607 19.9596 4.76323 19.9714 4.69997 19.9701C4.39997 19.8801 4.13997 19.5601 4.29997 19.3401Z" fill="#343434"/>
<path d="M6.14977 9.25009C6.22977 9.40009 6.28977 9.55009 6.34977 9.67009C6.40977 9.79009 6.59977 10.0401 6.64977 10.1801C6.66762 10.2456 6.66762 10.3146 6.64977 10.3801C6.64981 10.45 6.62274 10.5172 6.57425 10.5676C6.52576 10.6179 6.45963 10.6475 6.38977 10.6501C6.38977 10.6501 6.31977 10.7401 5.67977 10.1201L5.40977 9.82009C5.34755 9.71647 5.2908 9.60965 5.23977 9.50009C5.17977 9.40009 5.12977 9.30009 5.07977 9.20009C5.05447 9.13238 5.05447 9.0578 5.07977 8.99009C5.13977 8.67009 5.33977 8.56009 5.71977 8.70009C5.79977 8.77009 5.81977 8.70009 5.89977 8.83009C5.99558 8.96227 6.07925 9.10285 6.14977 9.25009Z" fill="#343434"/>
</svg>
