<svg width="24" height="23" viewBox="0 0 24 23" fill="none" xmlns="http://www.w3.org/2000/svg">
<path fill-rule="evenodd" clip-rule="evenodd" d="M9.85991 14.24C10.6873 14.5135 11.5631 14.6089 12.4299 14.52C13.4575 14.4869 14.455 14.1649 15.3079 13.5908C16.1609 13.0168 16.8348 12.2139 17.2523 11.2744C17.6699 10.3349 17.8142 9.29672 17.6688 8.27893C17.5233 7.26114 17.0939 6.30495 16.4299 5.52001C15.8552 4.83921 15.1292 4.30232 14.3099 3.9523C13.4906 3.60227 12.6008 3.44882 11.7116 3.50421C10.8224 3.55961 9.95846 3.82231 9.18894 4.27131C8.41943 4.72031 7.76565 5.34315 7.27991 6.09001C5.66991 8.48001 6.50991 11.98 8.10991 13.01C8.17754 13.0578 8.26136 13.0767 8.34294 13.0626C8.42452 13.0485 8.49717 13.0026 8.54491 12.935C8.59264 12.8674 8.61156 12.7836 8.5975 12.702C8.58343 12.6204 8.53754 12.5478 8.46991 12.5C7.18991 11.6 6.60991 8.50001 8.05991 6.61001C8.48056 6.02265 9.02812 5.53758 9.66194 5.19084C10.2958 4.8441 10.9995 4.64459 11.721 4.60712C12.4425 4.56966 13.1632 4.6952 13.8295 4.97442C14.4958 5.25364 15.0907 5.67938 15.5699 6.22001C17.9399 9.03001 16.5699 13.3 12.3599 13.79C11.5938 13.8977 10.8136 13.8432 10.0699 13.63C10.0271 13.5973 9.97718 13.5752 9.92418 13.5655C9.87118 13.5559 9.81665 13.559 9.76507 13.5745C9.7135 13.5901 9.66636 13.6177 9.62755 13.655C9.58873 13.6924 9.55934 13.7384 9.54181 13.7894C9.52427 13.8403 9.51909 13.8947 9.52669 13.948C9.53429 14.0013 9.55445 14.0521 9.58552 14.0961C9.61658 14.1401 9.65766 14.1761 9.70536 14.2011C9.75307 14.2261 9.80604 14.2395 9.85991 14.24Z" fill="#343434"/>
<path fill-rule="evenodd" clip-rule="evenodd" d="M23.6399 5.29997C23.5199 4.20997 23.5699 2.02997 22.7199 1.42997C20.8099 0.0699682 16.7199 0.429968 13.9099 0.339968C10.4299 0.219968 6.69994 0.499968 3.28994 0.589968C3.2411 0.581499 3.191 0.58381 3.14315 0.596741C3.0953 0.609671 3.05086 0.632907 3.01293 0.664822C2.97501 0.696737 2.94452 0.736558 2.9236 0.781496C2.90268 0.826433 2.89185 0.875401 2.89185 0.924968C2.89185 0.974535 2.90268 1.0235 2.9236 1.06844C2.94452 1.11338 2.97501 1.1532 3.01293 1.18511C3.05086 1.21703 3.0953 1.24027 3.14315 1.2532C3.191 1.26613 3.2411 1.26844 3.28994 1.25997C6.74994 1.25997 10.3599 0.999968 13.8699 1.17997C16.2999 1.30997 20.5399 1.04997 22.1299 2.17997C22.5099 2.45997 22.5199 4.63997 22.5999 5.37997C22.9381 8.06806 22.9616 10.7864 22.6699 13.48C22.6213 14.3735 22.4737 15.2589 22.2299 16.12C19.8299 17.34 2.51994 18.36 1.47994 16.68C1.09851 15.3278 0.883582 13.9342 0.839941 12.53C0.697732 8.9058 0.898627 5.2763 1.43994 1.68997C1.72994 1.41997 1.31994 0.979968 1.03994 1.24997C0.609941 1.63997 0.689941 2.87997 0.619941 3.31997C0.053973 6.68182 -0.120524 10.0979 0.0999409 13.5C0.147576 14.7474 0.35253 15.9839 0.709941 17.18C1.54994 18.59 7.05994 18.64 8.70994 18.65C8.04879 19.5036 7.73128 20.5739 7.81994 21.65L5.65994 21.8C5.58038 21.8 5.50407 21.8316 5.44781 21.8878C5.39155 21.9441 5.35994 22.0204 5.35994 22.1C5.35994 22.1795 5.39155 22.2558 5.44781 22.3121C5.50407 22.3684 5.58038 22.4 5.65994 22.4C7.65994 22.47 9.17994 22.67 11.6599 22.65C14.1399 22.63 15.7199 22.42 17.7299 22.27C17.7788 22.2784 17.8289 22.2761 17.8767 22.2632C17.9246 22.2503 17.969 22.227 18.007 22.1951C18.0449 22.1632 18.0754 22.1234 18.0963 22.0784C18.1172 22.0335 18.128 21.9845 18.128 21.935C18.128 21.8854 18.1172 21.8364 18.0963 21.7915C18.0754 21.7466 18.0449 21.7067 18.007 21.6748C17.969 21.6429 17.9246 21.6197 17.8767 21.6067C17.8289 21.5938 17.7788 21.5915 17.7299 21.6H15.8899C15.7675 20.4943 15.4276 19.4238 14.8899 18.45C17.1622 18.3271 19.4219 18.0329 21.6499 17.57C23.0999 17.2 23.3599 16.83 23.5499 15.76C24.1283 12.2996 24.1587 8.76978 23.6399 5.29997ZM15.1199 21.6C12.2699 21.53 10.8699 21.51 8.56994 21.6C8.72994 21.21 8.96994 20.69 9.07994 20.31C9.22264 19.7686 9.32294 19.2169 9.37994 18.66C9.37994 18.54 9.64994 18.74 14.0599 18.47C14.1489 19.5849 14.5131 20.6604 15.1199 21.6Z" fill="#003366"/>
<path fill-rule="evenodd" clip-rule="evenodd" d="M9.35999 9.15995C9.35999 9.15995 8.77999 9.32995 9.00999 9.65995C9.39999 10.25 10.07 11.28 10.73 11.32C11.86 11.38 13.19 8.24995 13.67 7.22995C13.8191 7.07405 13.9138 6.8741 13.94 6.65995C13.9331 6.58798 13.904 6.51992 13.8568 6.46512C13.8096 6.41033 13.7466 6.37149 13.6765 6.35396C13.6063 6.33642 13.5325 6.34104 13.4651 6.36718C13.3976 6.39332 13.34 6.43971 13.3 6.49995C13.06 6.77995 10.62 10.32 10.68 10.41C10.49 10.44 9.49999 9.24995 9.35999 9.15995Z" fill="#003366"/>
</svg>
